<svg xmlns="http://www.w3.org/2000/svg" version="1.1" xmlns:xlink="http://www.w3.org/1999/xlink" width="512" height="512" x="0" y="0" viewBox="0 0 66 66" style="enable-background:new 0 0 512 512" xml:space="preserve" class=""><g><path d="M17.7 56c8.3 3.5 22.9 3.3 30.6 0 4.4.7 11.8.5 15.1-2.3 1-.8 1.5-1.8 1.5-3 0-4.7-2.6-8.8-6.7-10.8 1.2-1.3 1.9-3.1 1.9-5 0-8-11.1-10.1-14.1-2.8-1.4-1.1-3-2.1-4.7-2.8 2.6-2.3 4.2-5.6 4.2-9.4 0-7-5.7-12.6-12.6-12.6S20.3 13 20.3 19.9c0 3.7 1.6 7 4.2 9.4-1.7.7-3.3 1.7-4.7 2.8-1.1-2.7-3.8-4.5-6.8-4.5-4 0-7.3 3.3-7.3 7.3 0 1.9.7 3.6 1.9 5C3.6 42 1 46.2 1 50.8c0 1.1.5 2.1 1.5 3 3.3 2.7 10.7 2.9 15.2 2.2zM63 50.8c0 .5-.3 1-.8 1.4-1.8 1.5-6.4 2.4-10.8 2.1 1.9-1.4 3-3.1 3-5.2 0-2.4-.4-4.6-1.1-6.8 1.1-.1 2.2-.4 3.2-.9 3.9 1.4 6.5 5.2 6.5 9.4zM52.9 29.7c2.9 0 5.3 2.4 5.3 5.3 0 3.2-2.8 5.6-5.7 5.3-1.1-2.5-2.7-4.8-4.7-6.7.6-2.2 2.7-3.9 5.1-3.9zm-30.5-9.6c0-5.9 4.8-10.6 10.6-10.6s10.6 4.8 10.6 10.6c0 5.9-4.8 10.6-10.6 10.6-5.9 0-10.6-4.8-10.6-10.6zM33 32.7c2.4 0 4.6-.7 6.5-1.8 7.7 2.8 12.8 10.1 12.8 18.2 0 9.9-38.8 9.9-38.8 0 0-8.2 5.1-15.5 12.8-18.2 2.1 1.1 4.3 1.8 6.7 1.8zm-19.9-3c2.4 0 4.5 1.7 5.1 4-2 1.9-3.6 4.1-4.7 6.6-2.8.3-5.8-2-5.8-5.3.1-2.9 2.4-5.3 5.4-5.3zM9.5 41.4c1 .6 2.1.9 3.2.9-.7 2.1-1.1 4.4-1.1 6.8 0 1.5.6 3.5 3 5.2-4.5.3-9-.6-10.9-2.1-.4-.4-.7-.9-.7-1.4 0-4.2 2.6-7.9 6.5-9.4z" fill="#21b2f6" opacity="1" data-original="#000000"></path></g></svg>